
Genre:Action | Adventure | Sci-Fi
Language:English
IMDb:http://www.imdb.com/title/tt1399103/
Source:Bluray.x264-MHD Thanks!

Format : MPEG-4
Format profile : Base Media
Codec ID : isom
File size : 2.09 GiB
Duration : 2h 34mn
Overall bit rate : 1 934 Kbps

Video
ID : 1
Format : AVC
Format/Info : Advanced Video Codec
Format profile : High@L4.1
Format settings, CABAC : Yes
Format settings, ReFrames : 3 frames
Codec ID : avc1
Codec ID/Info : Advanced Video Coding
Duration : 2h 34mn
Bit rate mode : Variable
Bit rate : 1 500 Kbps
Maximum bit rate : 6 364 Kbps
Width : 720 pixels
Height : 304 pixels
Display aspect ratio : 2.35:1
Frame rate mode : Constant
Frame rate : 23.976 fps
Color space : YUV
Chroma subsampling : 4:2:0
Bit depth : 8 bits
Scan type : Progressive
Bits/(Pixel*Frame) : 0.286
Stream size : 1.60 GiB (77%)
Writing library : x264

Audio
ID : 2
Format : AAC
Format/Info : Advanced Audio Codec
Format version : Version 4
Format profile : LC
Format settings, SBR : No
Codec ID : 40
Duration : 2h 34mn
Bit rate mode : Variable
Bit rate : 446 Kbps
Maximum bit rate : 544 Kbps
Channel(s) : 6 channels
Channel positions : Front: L C R, Side: L R, LFE
Sampling rate : 48.0 KHz
Stream size : 492 MiB (23%)


Plot:
The Autobots learn of a Cybertronian spacecraft hidden on the Moon, and race against the Decepticons to reach it and to learn its secrets.
 
http://www.pix2links.com/images/90851557368873087214.png
 
http://www.pix2links.com/images/46284931214719579746.png
 
http://www.pix2links.com/images/79877093044410908620.png
 
http://www.pix2links.com/images/82627291366370403078.png
 
http://www.pix2links.com/images/72678568583397536873.png